<svg xmlns="http://www.w3.org/2000/svg" viewBox="0 0 1600 900" width="1600" height="900" role="img" aria-label="Optical layout of the multiphoton scanning microscope" font-family="Inter, 'Helvetica Neue', Helvetica, Arial, sans-serif">
<rect width="1600" height="900" fill="#f3faf7"/>
<rect x="50" y="400" width="250" height="100" rx="10" fill="white" fill-opacity="1.0" stroke="#064e3b" stroke-width="2.5"/>
<rect x="520" y="330" width="160" height="180" rx="12" fill="white" fill-opacity="1.0" stroke="#064e3b" stroke-width="2.5"/>
<rect x="1340" y="560" width="240" height="80" rx="10" fill="white" fill-opacity="1.0" stroke="#064e3b" stroke-width="2.5"/>
<path d="M 1040 116 L 1040 85 L 1460 85 L 1460 560" fill="none" stroke="#5b6b66" stroke-width="2" stroke-dasharray="7 5" stroke-linecap="round" stroke-linejoin="round"/>
<path d="M 1370 280 L 1460 280" fill="none" stroke="#5b6b66" stroke-width="2" stroke-dasharray="7 5" stroke-linecap="round" stroke-linejoin="round"/>
<path d="M 1040 815 L 1040 855 L 1460 855 L 1460 640" fill="none" stroke="#5b6b66" stroke-width="2" stroke-dasharray="7 5" stroke-linecap="round" stroke-linejoin="round"/>
<path d="M 600 510 L 600 855 L 1040 855" fill="none" stroke="#5b6b66" stroke-width="2" stroke-dasharray="7 5" stroke-linecap="round" stroke-linejoin="round"/>
<circle cx="1460" cy="280" r="3.5" fill="#5b6b66"/>
<circle cx="1040" cy="855" r="3.5" fill="#5b6b66"/>
<path d="M 60 163 L 108 163" fill="none" stroke="#5b6b66" stroke-width="2" stroke-dasharray="7 5" stroke-linecap="round" stroke-linejoin="round"/>
<path d="M 300 450 L 565 450 L 625 390 L 1040 390 L 1036 394 L 1036 450" fill="none" stroke="#0f9d78" stroke-width="9" stroke-opacity="0.16" stroke-linecap="round" stroke-linejoin="round"/>
<path d="M 300 450 L 565 450 L 625 390 L 1040 390 L 1036 394 L 1036 450" fill="none" stroke="#0f9d78" stroke-width="3" stroke-opacity="1.0" stroke-linecap="round" stroke-linejoin="round"/>
<polygon points="1029,544 1051,544 1040,580" fill="#0f9d78" fill-opacity="0.28"/>
<line x1="1029" y1="544" x2="1040" y2="580" stroke="#0f9d78" stroke-width="2" stroke-opacity="1.0" stroke-linecap="round"/>
<line x1="1051" y1="544" x2="1040" y2="580" stroke="#0f9d78" stroke-width="2" stroke-opacity="1.0" stroke-linecap="round"/>
<path d="M 1034 580 L 1034 689" fill="none" stroke="#0f9d78" stroke-width="2" stroke-opacity="0.6" stroke-linecap="round" stroke-linejoin="round"/>
<polygon points="1040,580 1020,632 1060,632" fill="#f59e0b" fill-opacity="0.22"/>
<path d="M 1040 580 L 1040 755" fill="none" stroke="#f59e0b" stroke-width="9" stroke-opacity="0.16" stroke-linecap="round" stroke-linejoin="round"/>
<path d="M 1040 580 L 1040 755" fill="none" stroke="#f59e0b" stroke-width="3" stroke-opacity="1.0" stroke-linecap="round" stroke-linejoin="round"/>
<path d="M 1044 564 L 1044 284 L 1040 280 L 1040 176" fill="none" stroke="#f59e0b" stroke-width="9" stroke-opacity="0.16" stroke-linecap="round" stroke-linejoin="round"/>
<path d="M 1044 564 L 1044 284 L 1040 280 L 1040 176" fill="none" stroke="#f59e0b" stroke-width="3" stroke-opacity="1.0" stroke-linecap="round" stroke-linejoin="round"/>
<path d="M 1040 280 L 1200 280" fill="none" stroke="#f59e0b" stroke-width="9" stroke-opacity="0.16" stroke-linecap="round" stroke-linejoin="round"/>
<path d="M 1040 280 L 1200 280" fill="none" stroke="#f59e0b" stroke-width="3" stroke-opacity="1.0" stroke-linecap="round" stroke-linejoin="round"/>
<path d="M 60 93 L 108 93" fill="none" stroke="#0f9d78" stroke-width="9" stroke-opacity="0.16" stroke-linecap="round" stroke-linejoin="round"/>
<path d="M 60 93 L 108 93" fill="none" stroke="#0f9d78" stroke-width="3" stroke-opacity="1.0" stroke-linecap="round" stroke-linejoin="round"/>
<path d="M 60 128 L 108 128" fill="none" stroke="#f59e0b" stroke-width="9" stroke-opacity="0.16" stroke-linecap="round" stroke-linejoin="round"/>
<path d="M 60 128 L 108 128" fill="none" stroke="#f59e0b" stroke-width="3" stroke-opacity="1.0" stroke-linecap="round" stroke-linejoin="round"/>
<polygon points="319,450 305,456 305,444" fill="#0f9d78"/>
<polygon points="729,390 715,396 715,384" fill="#0f9d78"/>
<polygon points="972,390 958,396 958,384" fill="#0f9d78"/>
<polygon points="1040,677 1034,663 1046,663" fill="#f59e0b"/>
<polygon points="1113,280 1099,286 1099,274" fill="#f59e0b"/>
<polygon points="1040,233 1046,247 1034,247" fill="#f59e0b"/>
<rect x="360" y="412" width="10" height="76" rx="2" fill="#6ee7b7" fill-opacity="0.6" stroke="#064e3b" stroke-width="2"/>
<rect x="430" y="412" width="10" height="76" rx="2" fill="#6ee7b7" fill-opacity="0.6" stroke="#064e3b" stroke-width="2"/>
<line x1="351" y1="502" x2="449" y2="502" stroke="#5b6b66" stroke-width="1.5" stroke-opacity="1.0" stroke-linecap="round"/>
<line x1="351" y1="496" x2="351" y2="502" stroke="#5b6b66" stroke-width="1.5" stroke-opacity="1.0" stroke-linecap="round"/>
<line x1="449" y1="496" x2="449" y2="502" stroke="#5b6b66" stroke-width="1.5" stroke-opacity="1.0" stroke-linecap="round"/>
<line x1="551.6" y1="462" x2="583" y2="449" stroke="#5b6b66" stroke-width="3" stroke-opacity="0.7" stroke-linecap="round"/>
<line x1="549.3" y1="456.5" x2="580.7" y2="443.5" stroke="#064e3b" stroke-width="6" stroke-opacity="1.0" stroke-linecap="round"/>
<line x1="607" y1="391" x2="638.4" y2="378" stroke="#5b6b66" stroke-width="3" stroke-opacity="0.7" stroke-linecap="round"/>
<line x1="609.3" y1="396.5" x2="640.7" y2="383.5" stroke="#064e3b" stroke-width="6" stroke-opacity="1.0" stroke-linecap="round"/>
<path d="M 587.2 463.6 A 26 26 0 0 1 558.9 475.3" fill="none" stroke="#5b6b66" stroke-width="1.5"/>
<polygon points="589.3,460.2 588.1,468.8 582.1,465.2" fill="#5b6b66"/>
<polygon points="555,474.3 563.6,472.8 562,479.6" fill="#5b6b66"/>
<path d="M 602.8 376.4 A 26 26 0 0 1 631.1 364.7" fill="none" stroke="#5b6b66" stroke-width="1.5"/>
<polygon points="600.7,379.8 601.9,371.2 607.9,374.8" fill="#5b6b66"/>
<polygon points="635,365.7 626.4,367.2 628,360.4" fill="#5b6b66"/>
<path d="M 770 340 Q 744 390 770 440 Q 796 390 770 340 Z" fill="#6ee7b7" fill-opacity="0.5" stroke="#064e3b" stroke-width="2.5" stroke-linejoin="round"/>
<path d="M 905 334 Q 877 390 905 446 Q 933 390 905 334 Z" fill="#6ee7b7" fill-opacity="0.5" stroke="#064e3b" stroke-width="2.5" stroke-linejoin="round"/>
<rect x="1002" y="385.5" width="76" height="9" rx="2" fill="#6ee7b7" fill-opacity="0.8" stroke="#064e3b" stroke-width="2" transform="rotate(45 1040 390)"/>
<rect x="1002" y="275.5" width="76" height="9" rx="2" fill="#6ee7b7" fill-opacity="0.8" stroke="#064e3b" stroke-width="2" transform="rotate(-45 1040 280)"/>
<rect x="1004" y="450" width="72" height="14" rx="3" fill="white" fill-opacity="1.0" stroke="#064e3b" stroke-width="2.5"/>
<path d="M 1010 464 L 1070 464 L 1053 544 L 1027 544 Z" fill="white" stroke="#064e3b" stroke-width="2.5" stroke-linejoin="round"/>
<line x1="1017" y1="490" x2="1063" y2="490" stroke="#d5e8e1" stroke-width="2" stroke-opacity="1.0" stroke-linecap="round"/>
<ellipse cx="1040" cy="544" rx="11" ry="3.5" fill="#6ee7b7" stroke="#064e3b" stroke-width="1.5"/>
<rect x="960" y="574" width="160" height="12" rx="2" fill="#ecfdf5" fill-opacity="0.85" stroke="#064e3b" stroke-width="1.5"/>
<ellipse cx="1040" cy="580" rx="26" ry="4" fill="#0f9d78" fill-opacity="0.5"/>
<rect x="940" y="588" width="60" height="20" rx="3" fill="#d5e8e1" fill-opacity="1.0" stroke="#064e3b" stroke-width="1.5"/>
<rect x="1080" y="588" width="60" height="20" rx="3" fill="#d5e8e1" fill-opacity="1.0" stroke="#064e3b" stroke-width="1.5"/>
<path d="M 995 640 Q 1040 618 1085 640 Q 1040 662 995 640 Z" fill="#6ee7b7" fill-opacity="0.5" stroke="#064e3b" stroke-width="2.5" stroke-linejoin="round"/>
<rect x="1010" y="690" width="60" height="10" rx="2" fill="#f59e0b" fill-opacity="0.4" stroke="#064e3b" stroke-width="2"/>
<rect x="1145" y="250" width="10" height="60" rx="2" fill="#f59e0b" fill-opacity="0.4" stroke="#064e3b" stroke-width="2"/>
<rect x="1010" y="205" width="60" height="10" rx="2" fill="#f59e0b" fill-opacity="0.4" stroke="#064e3b" stroke-width="2"/>
<rect x="955" y="755" width="170" height="60" rx="8" fill="white" fill-opacity="1.0" stroke="#064e3b" stroke-width="2.5"/>
<rect x="958" y="758" width="164" height="14" rx="4" fill="#6ee7b7" fill-opacity="1.0" stroke="none" stroke-width="2.5"/>
<rect x="1200" y="250" width="170" height="60" rx="8" fill="white" fill-opacity="1.0" stroke="#064e3b" stroke-width="2.5"/>
<rect x="1203" y="253" width="14" height="54" rx="4" fill="#6ee7b7" fill-opacity="1.0" stroke="none" stroke-width="2.5"/>
<rect x="955" y="116" width="170" height="60" rx="8" fill="white" fill-opacity="1.0" stroke="#064e3b" stroke-width="2.5"/>
<rect x="958" y="159" width="164" height="14" rx="4" fill="#6ee7b7" fill-opacity="1.0" stroke="none" stroke-width="2.5"/>
<text x="1040" y="786" font-size="15" font-weight="500" fill="#5b6b66" text-anchor="middle">PMT</text>
<text x="1040" y="809" font-size="22" font-weight="600" fill="#064e3b" text-anchor="middle">SHG forward</text>
<text x="1292" y="274" font-size="15" font-weight="500" fill="#5b6b66" text-anchor="middle">PMT</text>
<text x="1292" y="297" font-size="22" font-weight="600" fill="#064e3b" text-anchor="middle">SHG epi</text>
<text x="1040" y="133" font-size="15" font-weight="500" fill="#5b6b66" text-anchor="middle">PMT</text>
<text x="1040" y="156" font-size="22" font-weight="600" fill="#064e3b" text-anchor="middle">TPEF</text>
<text x="175" y="444" font-size="22" font-weight="600" fill="#064e3b" text-anchor="middle">Femtosecond laser</text>
<text x="175" y="474" font-size="20" font-weight="500" fill="#5b6b66" text-anchor="middle">1030 nm</text>
<text x="365" y="398" font-size="22" font-weight="500" fill="#064e3b" text-anchor="middle">&#955;/2</text>
<text x="435" y="398" font-size="22" font-weight="500" fill="#064e3b" text-anchor="middle">&#955;/4</text>
<text x="400" y="528" font-size="22" font-weight="500" fill="#064e3b" text-anchor="middle">Polarisation control</text>
<text x="400" y="554" font-size="20" font-weight="400" fill="#5b6b66" text-anchor="middle">for P-SHG</text>
<text x="600" y="314" font-size="24" font-weight="500" fill="#064e3b" text-anchor="middle">Resonant / galvo scanner</text>
<text x="770" y="472" font-size="22" font-weight="500" fill="#064e3b" text-anchor="middle">Scan lens</text>
<text x="905" y="472" font-size="22" font-weight="500" fill="#064e3b" text-anchor="middle">Tube lens</text>
<text x="1082" y="398" font-size="22" font-weight="500" fill="#064e3b" text-anchor="start">Dichroic</text>
<text x="1090" y="512" font-size="22" font-weight="500" fill="#064e3b" text-anchor="start">Objective</text>
<text x="1155" y="602" font-size="22" font-weight="500" fill="#064e3b" text-anchor="start">Sample / stage</text>
<text x="1102" y="648" font-size="22" font-weight="500" fill="#064e3b" text-anchor="start">Condenser</text>
<text x="1086" y="703" font-size="22" font-weight="500" fill="#064e3b" text-anchor="start">Bandpass filter</text>
<text x="998" y="288" font-size="22" font-weight="500" fill="#064e3b" text-anchor="end">Dichroic</text>
<text x="998" y="218" font-size="22" font-weight="500" fill="#064e3b" text-anchor="end">Bandpass filter</text>
<text x="1150" y="342" font-size="22" font-weight="500" fill="#064e3b" text-anchor="middle">Bandpass filter</text>
<text x="1460" y="608" font-size="24" font-weight="600" fill="#064e3b" text-anchor="middle">Computer / DAQ</text>
<text x="122" y="100" font-size="22" font-weight="500" fill="#064e3b" text-anchor="start">Excitation beam, 1030 nm</text>
<text x="122" y="135" font-size="22" font-weight="500" fill="#064e3b" text-anchor="start">Emitted signal (SHG / TPEF)</text>
<text x="122" y="170" font-size="22" font-weight="500" fill="#064e3b" text-anchor="start">Control / data</text>
</svg>